{
  "accessors": [
    {
      "bufferView": 2,
      "componentType": 5126,
      "count": 65532,
      "max": [
        8.795899391174316,
        -4.309982776641846,
        11.570005416870117
      ],
      "min": [
        -7.278909206390381,
        -41.225608825683594,
        -9.019277572631836
      ],
      "type": "VEC3"
    },
    {
      "bufferView": 2,
      "byteOffset": 786384,
      "componentType": 5126,
      "count": 65532,
      "max": [
        0.9999809861183167,
        0.999993622303009,
        0.9999728202819824
      ],
      "min": [
        -0.9999959468841553,
        -0.9999900460243225,
        -0.9999958872795105
      ],
      "type": "VEC3"
    },
    {
      "bufferView": 1,
      "componentType": 5126,
      "count": 65532,
      "max": [
        0.9994530081748962,
        0.7668460011482239
      ],
      "min": [
        0.00024399999529123306,
        0.0006730000022798777
      ],
      "type": "VEC2"
    },
    {
      "bufferView": 0,
      "componentType": 5125,
      "count": 276150,
      "type": "SCALAR"
    },
    {
      "bufferView": 2,
      "byteOffset": 1572768,
      "componentType": 5126,
      "count": 65532,
      "max": [
        6.520242214202881,
        -4.8032708168029785,
        11.484077453613281
      ],
      "min": [
        -7.306732654571533,
        -24.143842697143555,
        -12.593526840209961
      ],
      "type": "VEC3"
    },
    {
      "bufferView": 2,
      "byteOffset": 2359152,
      "componentType": 5126,
      "count": 65532,
      "max": [
        0.9999956488609314,
        0.9995484352111816,
        0.9999523758888245
      ],
      "min": [
        -0.9999959468841553,
        -0.9997580647468567,
        -0.999866247177124
      ],
      "type": "VEC3"
    },
    {
      "bufferView": 1,
      "byteOffset": 524256,
      "componentType": 5126,
      "count": 65532,
      "max": [
        0.9996079802513123,
        0.7668460011482239
      ],
      "min": [
        0.00024399999529123306,
        0.0004030000127386302
      ],
      "type": "VEC2"
    },
    {
      "bufferView": 0,
      "byteOffset": 1104600,
      "componentType": 5125,
      "count": 236160,
      "type": "SCALAR"
    },
    {
      "bufferView": 2,
      "byteOffset": 3145536,
      "componentType": 5126,
      "count": 65532,
      "max": [
        8.795899391174316,
        -4.163370132446289,
        11.609251976013184
      ],
      "min": [
        -6.629664897918701,
        -42.24785232543945,
        -11.378385543823242
      ],
      "type": "VEC3"
    },
    {
      "bufferView": 2,
      "byteOffset": 3931920,
      "componentType": 5126,
      "count": 65532,
      "max": [
        0.999981701374054,
        0.999993622303009,
        0.9999988675117493
      ],
      "min": [
        -0.9998658299446106,
        -0.9999561905860901,
        -0.9999919533729553
      ],
      "type": "VEC3"
    },
    {
      "bufferView": 1,
      "byteOffset": 1048512,
      "componentType": 5126,
      "count": 65532,
      "max": [
        0.9996160268783569,
        0.7668460011482239
      ],
      "min": [
        0.00024399999529123306,
        0.0007999999797903001
      ],
      "type": "VEC2"
    },
    {
      "bufferView": 0,
      "byteOffset": 2049240,
      "componentType": 5125,
      "count": 226674,
      "type": "SCALAR"
    },
    {
      "bufferView": 2,
      "byteOffset": 4718304,
      "componentType": 5126,
      "count": 5107,
      "max": [
        6.541887283325195,
        -10.89223575592041,
        0.3365297317504883
      ],
      "min": [
        -6.600062847137451,
        -23.058147430419922,
        -12.572975158691406
      ],
      "type": "VEC3"
    },
    {
      "bufferView": 2,
      "byteOffset": 4779588,
      "componentType": 5126,
      "count": 5107,
      "max": [
        0.999984085559845,
        0.9977747201919556,
        0.9977492690086365
      ],
      "min": [
        -0.9999749064445496,
        -0.9995223879814148,
        -0.9997168779373169
      ],
      "type": "VEC3"
    },
    {
      "bufferView": 1,
      "byteOffset": 1572768,
      "componentType": 5126,
      "count": 5107,
      "max": [
        0.9962970018386841,
        0.7668460011482239
      ],
      "min": [
        0.00024399999529123306,
        0.14353899657726288
      ],
      "type": "VEC2"
    },
    {
      "bufferView": 0,
      "byteOffset": 2955936,
      "componentType": 5125,
      "count": 11016,
      "type": "SCALAR"
    }
  ],
  "asset": {
    "extras": {
      "author": "coderlarry (https://sketchfab.com/coderlarry)",
      "license": "CC-BY-4.0 (http://creativecommons.org/licenses/by/4.0/)",
      "source": "https://sketchfab.com/3d-models/nike-air-tn-gltf-cedbd94e3b6c4b2e8dc84e17372f4ec5",
      "title": "Nike Air Tn-gltf"
    },
    "generator": "Sketchfab-13.28.0",
    "version": "2.0"
  },
  "bufferViews": [
    {
      "buffer": 0,
      "byteLength": 3000000,
      "name": "floatBufferViews",
      "target": 34963
    },
    {
      "buffer": 0,
      "byteLength": 1613624,
      "byteOffset": 3000000,
      "byteStride": 8,
      "name": "floatBufferViews",
      "target": 34962
    },
    {
      "buffer": 0,
      "byteLength": 4840872,
      "byteOffset": 4613624,
      "byteStride": 12,
      "name": "floatBufferViews",
      "target": 34962
    }
  ],
  "buffers": [
    {
      "byteLength": 9454496,
      "uri": "scene.bin"
    }
  ],
  "images": [
    {
      "uri": "textures/2_Material_u1_v1_baseColor.png"
    }
  ],
  "materials": [
    {
      "doubleSided": true,
      "name": "2_Material_u1_v1",
      "pbrMetallicRoughness": {
        "baseColorTexture": {
          "index": 0
        },
        "metallicFactor": 0.0
      }
    }
  ],
  "meshes": [
    {
      "name": "Object_0",
      "primitives": [
        {
          "attributes": {
            "NORMAL": 1,
            "POSITION": 0,
            "TEXCOORD_0": 2
          },
          "indices": 3,
          "material": 0,
          "mode": 4
        }
      ]
    },
    {
      "name": "Object_1",
      "primitives": [
        {
          "attributes": {
            "NORMAL": 5,
            "POSITION": 4,
            "TEXCOORD_0": 6
          },
          "indices": 7,
          "material": 0,
          "mode": 4
        }
      ]
    },
    {
      "name": "Object_2",
      "primitives": [
        {
          "attributes": {
            "NORMAL": 9,
            "POSITION": 8,
            "TEXCOORD_0": 10
          },
          "indices": 11,
          "material": 0,
          "mode": 4
        }
      ]
    },
    {
      "name": "Object_3",
      "primitives": [
        {
          "attributes": {
            "NORMAL": 13,
            "POSITION": 12,
            "TEXCOORD_0": 14
          },
          "indices": 15,
          "material": 0,
          "mode": 4
        }
      ]
    }
  ],
  "nodes": [
    {
      "children": [
        1
      ],
      "matrix": [
        1.0,
        0.0,
        0.0,
        0.0,
        0.0,
        2.220446049250313e-16,
        -1.0,
        0.0,
        0.0,
        1.0,
        2.220446049250313e-16,
        0.0,
        0.0,
        0.0,
        0.0,
        1.0
      ],
      "name": "Sketchfab_model"
    },
    {
      "children": [
        2
      ],
      "name": "root"
    },
    {
      "children": [
        3
      ],
      "matrix": [
        1.0,
        0.0,
        0.0,
        0.0,
        0.0,
        2.220446049250313e-16,
        1.0,
        0.0,
        0.0,
        -1.0,
        2.220446049250313e-16,
        0.0,
        0.0,
        0.0,
        0.0,
        1.0
      ],
      "name": "GLTF_SceneRootNode"
    },
    {
      "children": [
        4
      ],
      "matrix": [
        0.9920746088027954,
        2.4430468371843352e-17,
        -0.1256500482559204,
        0.0,
        0.12148170918226242,
        0.25543656945228577,
        0.9591633677482605,
        0.0,
        0.032095618546009064,
        -0.9668258428573608,
        0.253412127494812,
        0.0,
        2.840761661529541,
        4.95969295501709,
        45.68198776245117,
        1.0
      ],
      "name": "Sketchfab_model_0"
    },
    {
      "children": [
        5,
        7,
        9,
        11
      ],
      "name": "2.obj.cleaner.materialmerger.gles_1"
    },
    {
      "children": [
        6
      ],
      "name": "Object_2_2"
    },
    {
      "mesh": 0,
      "name": "Object_6"
    },
    {
      "children": [
        8
      ],
      "name": "Object_3_3"
    },
    {
      "mesh": 1,
      "name": "Object_8"
    },
    {
      "children": [
        10
      ],
      "name": "Object_4_4"
    },
    {
      "mesh": 2,
      "name": "Object_10"
    },
    {
      "children": [
        12
      ],
      "name": "Object_5_5"
    },
    {
      "mesh": 3,
      "name": "Object_12"
    }
  ],
  "samplers": [
    {
      "magFilter": 9729,
      "minFilter": 9987,
      "wrapS": 10497,
      "wrapT": 10497
    }
  ],
  "scene": 0,
  "scenes": [
    {
      "name": "Sketchfab_Scene",
      "nodes": [
        0
      ]
    }
  ],
  "textures": [
    {
      "sampler": 0,
      "source": 0
    }
  ]
}
