{
  "accessors": [
    {
      "bufferView": 2,
      "componentType": 5126,
      "count": 42453,
      "max": [
        0.07738771289587021,
        0.08072064816951752,
        0.17456459999084473
      ],
      "min": [
        -0.05795759707689285,
        -0.06759314239025116,
        -0.1733965277671814
      ],
      "type": "VEC3"
    },
    {
      "bufferView": 2,
      "byteOffset": 509436,
      "componentType": 5126,
      "count": 42453,
      "max": [
        0.9999884366989136,
        0.9999710321426392,
        0.999864935874939
      ],
      "min": [
        -0.9999982118606567,
        -0.9999970197677612,
        -0.9999642372131348
      ],
      "type": "VEC3"
    },
    {
      "bufferView": 3,
      "componentType": 5126,
      "count": 42453,
      "max": [
        0.9999845623970032,
        0.9999380707740784,
        0.9999796152114868,
        1.0
      ],
      "min": [
        -0.99995356798172,
        -0.9997178912162781,
        -0.999947726726532,
        -1.0
      ],
      "type": "VEC4"
    },
    {
      "bufferView": 1,
      "componentType": 5126,
      "count": 42453,
      "max": [
        0.9999048709869385,
        0.9978364109992981
      ],
      "min": [
        4.17967430621502e-06,
        3.832578659057617e-05
      ],
      "type": "VEC2"
    },
    {
      "bufferView": 1,
      "byteOffset": 339624,
      "componentType": 5126,
      "count": 42453,
      "max": [
        0.9999048709869385,
        0.9978364109992981
      ],
      "min": [
        4.17967430621502e-06,
        3.832578659057617e-05
      ],
      "type": "VEC2"
    },
    {
      "bufferView": 1,
      "byteOffset": 679248,
      "componentType": 5126,
      "count": 42453,
      "max": [
        0.9999048709869385,
        0.9978364109992981
      ],
      "min": [
        4.17967430621502e-06,
        3.832578659057617e-05
      ],
      "type": "VEC2"
    },
    {
      "bufferView": 1,
      "byteOffset": 1018872,
      "componentType": 5126,
      "count": 42453,
      "max": [
        0.9999048709869385,
        0.9978364109992981
      ],
      "min": [
        4.17967430621502e-06,
        3.832578659057617e-05
      ],
      "type": "VEC2"
    },
    {
      "bufferView": 1,
      "byteOffset": 1358496,
      "componentType": 5126,
      "count": 42453,
      "max": [
        0.9999048709869385,
        0.9978364109992981
      ],
      "min": [
        4.17967430621502e-06,
        3.832578659057617e-05
      ],
      "type": "VEC2"
    },
    {
      "bufferView": 0,
      "componentType": 5125,
      "count": 232320,
      "type": "SCALAR"
    }
  ],
  "asset": {
    "extras": {
      "author": "LEKSA (https://sketchfab.com/LVDEV)",
      "license": "CC-BY-4.0 (http://creativecommons.org/licenses/by/4.0/)",
      "source": "https://sketchfab.com/3d-models/nike-dunk-03dea382fa48434e9541853297a8d0cc",
      "title": "Nike Dunk"
    },
    "generator": "Sketchfab-15.22.0",
    "version": "2.0"
  },
  "bufferViews": [
    {
      "buffer": 0,
      "byteLength": 929280,
      "name": "floatBufferViews",
      "target": 34963
    },
    {
      "buffer": 0,
      "byteLength": 1698120,
      "byteOffset": 929280,
      "byteStride": 8,
      "name": "floatBufferViews",
      "target": 34962
    },
    {
      "buffer": 0,
      "byteLength": 1018872,
      "byteOffset": 2627400,
      "byteStride": 12,
      "name": "floatBufferViews",
      "target": 34962
    },
    {
      "buffer": 0,
      "byteLength": 679248,
      "byteOffset": 3646272,
      "byteStride": 16,
      "name": "floatBufferViews",
      "target": 34962
    }
  ],
  "buffers": [
    {
      "byteLength": 4325520,
      "uri": "scene.bin"
    }
  ],
  "images": [
    {
      "uri": "textures/Material_0_baseColor.jpeg"
    },
    {
      "uri": "textures/Material_0_normal.png"
    }
  ],
  "materials": [
    {
      "doubleSided": true,
      "name": "Material_0",
      "normalTexture": {
        "index": 1
      },
      "pbrMetallicRoughness": {
        "baseColorTexture": {
          "index": 0
        },
        "roughnessFactor": 0.8211145618000169
      }
    }
  ],
  "meshes": [
    {
      "name": "Object_0",
      "primitives": [
        {
          "attributes": {
            "NORMAL": 1,
            "POSITION": 0,
            "TANGENT": 2,
            "TEXCOORD_0": 3,
            "TEXCOORD_1": 4,
            "TEXCOORD_2": 5,
            "TEXCOORD_3": 6,
            "TEXCOORD_4": 7
          },
          "indices": 8,
          "material": 0,
          "mode": 4
        }
      ]
    }
  ],
  "nodes": [
    {
      "children": [
        1
      ],
      "matrix": [
        1.0,
        0.0,
        0.0,
        0.0,
        0.0,
        2.220446049250313e-16,
        -1.0,
        0.0,
        0.0,
        1.0,
        2.220446049250313e-16,
        0.0,
        0.0,
        0.0,
        0.0,
        1.0
      ],
      "name": "Sketchfab_model"
    },
    {
      "children": [
        2
      ],
      "name": "root"
    },
    {
      "children": [
        3
      ],
      "matrix": [
        1.0,
        0.0,
        0.0,
        0.0,
        0.0,
        2.220446049250313e-16,
        1.0,
        0.0,
        0.0,
        -1.0,
        2.220446049250313e-16,
        0.0,
        0.0,
        0.0,
        0.0,
        1.0
      ],
      "name": "GLTF_SceneRootNode"
    },
    {
      "children": [
        4
      ],
      "name": "Mesh_0_0"
    },
    {
      "mesh": 0,
      "name": "Object_4"
    }
  ],
  "samplers": [
    {
      "magFilter": 9729,
      "minFilter": 9987,
      "wrapS": 10497,
      "wrapT": 10497
    }
  ],
  "scene": 0,
  "scenes": [
    {
      "name": "Sketchfab_Scene",
      "nodes": [
        0
      ]
    }
  ],
  "textures": [
    {
      "sampler": 0,
      "source": 0
    },
    {
      "sampler": 0,
      "source": 1
    }
  ]
}
