{
  "accessors": [
    {
      "bufferView": 2,
      "componentType": 5126,
      "count": 26172,
      "max": [
        0.07967987656593323,
        0.043636973947286606,
        0.04117247462272644
      ],
      "min": [
        -0.18307019770145416,
        -0.1762458235025406,
        -0.18712881207466125
      ],
      "type": "VEC3"
    },
    {
      "bufferView": 2,
      "byteOffset": 314064,
      "componentType": 5126,
      "count": 26172,
      "max": [
        0.9992425441741943,
        0.9998852610588074,
        0.9997941851615906
      ],
      "min": [
        -0.9997586011886597,
        -0.9996469020843506,
        -0.9987055659294128
      ],
      "type": "VEC3"
    },
    {
      "bufferView": 1,
      "componentType": 5126,
      "count": 26172,
      "max": [
        0.9998909831047058,
        0.9999579787254333
      ],
      "min": [
        1.4000000192027073e-05,
        0.0037529999390244484
      ],
      "type": "VEC2"
    },
    {
      "bufferView": 0,
      "componentType": 5125,
      "count": 135702,
      "type": "SCALAR"
    }
  ],
  "asset": {
    "extras": {
      "author": "afterglo (https://sketchfab.com/afterglo)",
      "license": "CC-BY-4.0 (http://creativecommons.org/licenses/by/4.0/)",
      "source": "https://sketchfab.com/3d-models/jordan-4-retro-sb-pine-green-dcaa112465f3466e9f4fe8ef108ebdb4",
      "title": "Jordan 4 Retro SB Pine Green"
    },
    "generator": "Sketchfab-15.30.0",
    "version": "2.0"
  },
  "bufferViews": [
    {
      "buffer": 0,
      "byteLength": 542808,
      "name": "floatBufferViews",
      "target": 34963
    },
    {
      "buffer": 0,
      "byteLength": 209376,
      "byteOffset": 542808,
      "byteStride": 8,
      "name": "floatBufferViews",
      "target": 34962
    },
    {
      "buffer": 0,
      "byteLength": 628128,
      "byteOffset": 752184,
      "byteStride": 12,
      "name": "floatBufferViews",
      "target": 34962
    }
  ],
  "buffers": [
    {
      "byteLength": 1380312,
      "uri": "scene.bin"
    }
  ],
  "extensionsUsed": [
    "KHR_materials_unlit"
  ],
  "images": [
    {
      "uri": "textures/poly_0.002_baseColor.jpeg"
    }
  ],
  "materials": [
    {
      "doubleSided": true,
      "extensions": {
        "KHR_materials_unlit": {}
      },
      "name": "poly_0.002",
      "pbrMetallicRoughness": {
        "baseColorTexture": {
          "index": 0
        },
        "metallicFactor": 0.0
      }
    }
  ],
  "meshes": [
    {
      "name": "poly.003_poly_0.002_0",
      "primitives": [
        {
          "attributes": {
            "NORMAL": 1,
            "POSITION": 0,
            "TEXCOORD_0": 2
          },
          "indices": 3,
          "material": 0,
          "mode": 4
        }
      ]
    }
  ],
  "nodes": [
    {
      "children": [
        1
      ],
      "matrix": [
        1.0,
        0.0,
        0.0,
        0.0,
        0.0,
        2.220446049250313e-16,
        -1.0,
        0.0,
        0.0,
        1.0,
        2.220446049250313e-16,
        0.0,
        0.0,
        0.0,
        0.0,
        1.0
      ],
      "name": "Sketchfab_model"
    },
    {
      "children": [
        2
      ],
      "matrix": [
        0.009999999776482582,
        0.0,
        0.0,
        0.0,
        0.0,
        0.0,
        0.009999999776482582,
        0.0,
        0.0,
        -0.009999999776482582,
        0.0,
        0.0,
        0.0,
        0.0,
        0.0,
        1.0
      ],
      "name": "84192292a0d44070aabf465105a3cbef.fbx"
    },
    {
      "children": [
        3
      ],
      "name": "RootNode"
    },
    {
      "children": [
        4
      ],
      "matrix": [
        52.66482456089749,
        -32.32575937224957,
        -78.62227124026185,
        0.0,
        -83.28451175232155,
        -1.0894246215102266,
        -55.339888472705276,
        0.0,
        17.032508803676027,
        94.6248299073846,
        -27.49609442904997,
        0.0,
        -0.2090144008398056,
        6.311769008636475,
        -9.194283485412598,
        1.0
      ],
      "name": "poly.003"
    },
    {
      "mesh": 0,
      "name": "poly.003_poly_0.002_0"
    }
  ],
  "samplers": [
    {
      "magFilter": 9729,
      "minFilter": 9987,
      "wrapS": 10497,
      "wrapT": 10497
    }
  ],
  "scene": 0,
  "scenes": [
    {
      "name": "Sketchfab_Scene",
      "nodes": [
        0
      ]
    }
  ],
  "textures": [
    {
      "sampler": 0,
      "source": 0
    }
  ]
}
