<svg width="128" height="128" viewBox="0 0 128 128" fill="none" xmlns="http://www.w3.org/2000/svg">
<g clip-path="url(#clip0_206_78)">
<path d="M122 72.3H116.7V69.6H127.2V63.7H117.2C114.6 63.7 111.1 65.8 111.1 69.8V71.8C111.1 75.8 114.5 77.8 117.2 77.8H122.2V80.6L111.4 80.7V86.6H122C124.2 86.6 127.9 85 128 80.6V78.3C128 74.5 124.9 72.3 122 72.3ZM60.4 71.4C60.4 64.1 53.5 63.4 53.5 63.4H41.2V86.5H47.4V81L52.8 86.6H62L54.7 79.2C54.7 79.2 60.4 78.7 60.4 71.4ZM52.3 74.5H47.3V69.2H52.3C52.3 69.2 53.7 69.7 53.7 71.8C53.7 74 52.3 74.5 52.3 74.5ZM75.7 63.6H69.4C64.9 63.6 63.4 67.7 63.4 69.6V86.5H69.7V82.5H75.6V86.5H81.7V69.6C81.7 64.7 77.3 63.6 75.7 63.6ZM75.6 75.9H69.6V70.3C69.6 70.3 69.6 69 71.6 69H73.8C75.5 69 75.6 70.3 75.6 70.3V75.9ZM84.6 63.6H91.2V86.5H84.6V63.6ZM100.4 63.6H93.9V86.5H109.2V80.6H100.4V63.6Z" fill="#CC0000"/>
<path d="M72.2 60.7C72.8 60.2 73.3 59.8 73.3 59.8C73.3 59.8 56.5 43 37.7 44.9C28.3 45.7 16.7 54.3 9.9 65.6C3.1 76.9 2.2 86.5 2.2 86.5H27.8C27.8 86.5 22.9 64.2 39.1 55.2C42.6 53.5 53.9 47.1 72.2 60.7ZM55.5 44.5C55.2 44.3 54.4 43.9 52.4 43.4L52.3 45.5C53.4 45.9 54.4 46.3 55.4 46.7L55.5 44.5Z" fill="#CC0000"/>
<path d="M55.5 55.9L55.6 53.9C54.5 53.7 53.4 53.6 52.4 53.5L52.3 55.5C53.4 55.5 54.4 55.7 55.5 55.9ZM40.4 43.5H40.7L40.1 41.5C39.1 41.5 38.1 41.6 37 41.7L37.6 43.6C38.5 43.5 39.4 43.5 40.4 43.5ZM42.6 57.6C43.5 57.1 44.5 56.8 45.4 56.5L44.7 54.4C43.7 54.6 42.7 55 41.9 55.4L42.6 57.6ZM27.2 46.9L25.7 44.7C25 45 24.1 45.5 23.3 46L24.8 48.3C25.6 47.8 26.4 47.3 27.2 46.9ZM33.9 61.4L35.5 63.7C36.1 62.9 36.7 62.1 37.4 61.4L35.9 59.2C35.1 59.9 34.5 60.7 33.9 61.4ZM30.2 68.3C29.7 69.5 29.4 70.7 29.2 71.8L31.8 73.9C31.9 72.6 32.2 71.4 32.5 70.1L30.2 68.3ZM15 56.5L12.7 54.5C11.9 55.3 11 56.1 10.3 56.9L12.8 59C13.5 58.1 14.2 57.3 15 56.5ZM5.19999 70.9L1.49999 69.5C0.899994 70.9 0.199994 72.5 -0.100006 73.4L3.59999 74.8C3.99999 73.7 4.69999 72.1 5.19999 70.9ZM28.7 80C28.8 81.7 28.9 83.1 29.1 84.1L33 85.5C32.7 84.2 32.4 82.8 32.2 81.3L28.7 80Z" fill="#CC0000"/>
</g>
<defs>
<clipPath id="clip0_206_78">
<rect width="128" height="128" fill="white"/>
</clipPath>
</defs>
</svg>
